<svg xmlns="http://www.w3.org/2000/svg" xmlns:xlink="http://www.w3.org/1999/xlink" version="1.1" width="2195.9pt" height="2430.9pt" viewBox="0 0 2195.9 2430.9">
<defs>
<clipPath id="clip_0">
<path transform="matrix(1,0,0,-1,0,2430.9)" d="M0 2430.9H2195.9V0H0Z"/>
</clipPath>
</defs>
<g id="layer_1" data-name="Layer 1">
<g clip-path="url(#clip_0)">
<path transform="matrix(1,0,0,-1,2100.835,2047.8008)" d="M0 0C.822-152.449-122.123-276.583-274.481-277.404-285.808-277.496-297.226-276.856-308.46-275.486-449.857-254.569-553.438-131.532-549.968 11.326V1653.831C-553.347 1796.871-449.491 1919.908-308.004 1940.643-156.65 1958.363-19.547 1850.032-1.826 1698.679-.548 1687.536 .092 1676.392 0 1665.157Z" fill="#f9ab00"/>
<path transform="matrix(1,0,0,-1,1093.7031,942.1113)" d="M0 0C-152.632-8.403-271.011-136.373-267.448-289.187V-1027.867C-267.448-1228.361-179.212-1350.028-49.964-1375.97 99.197-1406.204 244.521-1309.839 274.756-1160.678 278.5-1142.409 280.327-1123.867 280.236-1105.233V-276.399C280.51-123.951 157.199-.183 4.75 .091 3.197 .091 1.553 .091 0 0M-723.608-833.492C-571.707-833.492-448.579-956.62-448.579-1108.521-448.579-1260.423-571.707-1383.551-723.608-1383.551-875.509-1383.551-998.638-1260.423-998.638-1108.521-998.638-956.62-875.509-833.492-723.608-833.492" fill="#e37400"/>
</g>
</g>
</svg>
