<?xml version="1.0" encoding="utf-8"?>
<!-- Generator: Adobe Illustrator 26.0.3, SVG Export Plug-In . SVG Version: 6.00 Build 0)  -->
<svg version="1.0" id="katman_1" xmlns="http://www.w3.org/2000/svg" xmlns:xlink="http://www.w3.org/1999/xlink" x="0px" y="0px"
	 viewBox="0 0 600 450" style="enable-background:new 0 0 600 450;" xml:space="preserve">
<style type="text/css">
	.st0{fill:#010202;}
</style>
<path class="st0" d="M231.7,209.8c0-2.1-1.6-3.8-3.9-3.8c-2.3,0-3.9,1.7-3.9,3.8V241c0,2.1,1.6,3.8,3.9,3.8c2.3,0,3.9-1.7,3.9-3.8
	V209.8z"/>
<path class="st0" d="M270,206c-2.3,0-3.8,1.7-3.8,3.8v13.3l0.2,11.9l-4.7-11.1l-6.2-12.7c-1.9-3.9-4.1-5.2-7.1-5.2
	c-4.5,0-6.5,2.9-6.5,7v28c0,2.1,1.6,3.8,3.8,3.8c2.3,0,3.8-1.7,3.8-3.8l-0.1-13.1l-0.2-13.5l5,12.3l6.2,12.9c1.9,4.1,4,5.3,7.1,5.3
	c4.1,0,6.2-2.5,6.2-7.1v-28C273.9,207.7,272.3,206,270,206z"/>
<path class="st0" d="M302.6,213.9l8.8,0.2c2.1,0.1,3.7-1.5,3.7-3.8c0-2.3-1.6-3.8-3.7-3.8l-25.5-0.1c-2,0-3.7,1.6-3.7,3.8
	c0,2.3,1.7,3.8,3.7,3.8l8.9-0.2v27c0,2.1,1.6,3.8,3.9,3.8c2.3,0,3.9-1.7,3.9-3.8V213.9z"/>
<path class="st0" d="M328.7,244.3h19c2,0,3.6-1.5,3.6-3.6c0-2.2-1.6-3.7-3.6-3.7l-16.5,0.1v-9h14.3c1.9,0,3.5-1.5,3.5-3.5
	c0-2.1-1.6-3.5-3.5-3.5l-14.3,0.1v-7.5h16.5c2,0,3.6-1.5,3.6-3.7c0-2.2-1.6-3.6-3.6-3.6l-18.9,0.1c-3.5,0-5.4,1.9-5.4,5.4v27
	C323.4,242.4,325.3,244.3,328.7,244.3z"/>
<path class="st0" d="M382.2,228.9c5.1-1.4,8.2-5.4,8.2-10.7c0-5.9-3.8-11.8-13-11.8h-11.9c-3.5,0-5.4,1.9-5.4,5.4V241
	c0,2.1,1.6,3.8,4,3.8c2.3,0,4-1.7,4-3.8l-0.1-10.2h6.5l6.6,12c1.1,1.8,3.4,2.6,5.5,1.5c2.1-1.1,2.7-3.4,1.6-5.2L382.2,228.9z
	 M368,213.7h9.4c3.2,0,5.2,2,5.2,5c0,2.9-1.9,5.1-5.1,5.1H368V213.7z"/>
<path class="st0" d="M414.3,245c7.9,0,13-3.6,14.7-9.4c0.9-3.3-1-5.7-3.9-5.7c-1.8,0-3,0.9-3.7,2.9c-1.1,3-3.7,4.9-7.5,4.9
	c-6,0-8.6-4.1-8.6-12.5c0-8.3,2.6-12.2,8.6-12.2c3.7,0,5.9,1.6,7.2,5.2c0.8,2.1,2,3,3.8,3c2.8,0,4.9-2.3,4-5.4
	c-1.7-6.4-6.8-9.9-14.9-9.9c-11.1,0-16.8,6.8-16.8,19.4C397.2,238,402.9,245,414.3,245z"/>
<path class="st0" d="M452.7,244.9c11.5,0,17.1-7,17.1-19.6c0-12.7-5.8-19.6-17.1-19.6c-11.4,0-17,7.1-17.1,19.6
	C435.6,237.9,441.4,244.9,452.7,244.9z M452.7,237.7c-6.4,0-9.1-4.1-9.1-12.3c0-8.4,2.8-12.4,9.1-12.4c6.3,0,9.3,4.1,9.2,12.4
	C461.9,233.7,459.1,237.7,452.7,237.7z"/>
<path class="st0" d="M520.2,212.7c0-4.3-2.7-6.8-6.8-6.8c-3.4,0-5.9,1.8-7.1,6.1l-4.2,13.6l-2.8,9.8l-2.7-9.8l-4.4-13.6
	c-1.2-3.9-3.4-6.1-7.2-6.1c-4.2,0-6.8,2.5-6.8,6.8V241c0,2.1,1.5,3.8,3.7,3.8c2.2,0,3.7-1.7,3.7-3.8l-0.1-13.6l-0.4-14.6l4.3,14.9
	l4.5,13.2c1,2.9,2.8,3.9,5.2,3.9c2.2,0,4-0.8,4.9-3.8l4.3-13.3l4.6-15l-0.4,14.7V241c0,2.1,1.6,3.8,3.7,3.8c2.2,0,3.7-1.7,3.7-3.8
	L520.2,212.7z"/>
<path class="st0" d="M167.5,230.5c0,0.9-0.4,1.8-1,2.4c-0.6,0.6-1.5,1-2.4,1c-0.9,0-1.7-0.4-2.4-1c-0.6-0.6-1-1.5-1-2.4v-30.3
	c0-0.9,0.4-1.8,1-2.4c0.6-0.6,1.5-1,2.4-1c0.9,0,1.7,0.4,2.4,1c0.6,0.6,1,1.5,1,2.4V230.5z M166.4,251.5c-0.4,0.4-12.9,11-35.9,11
	c-22.9,0-35.3-10.5-35.9-10.9c-0.3-0.3-0.6-0.6-0.8-1c-0.2-0.4-0.3-0.8-0.4-1.3c0-0.4,0-0.9,0.1-1.3c0.1-0.4,0.3-0.8,0.6-1.1
	c0.6-0.7,1.4-1.1,2.3-1.2c0.9-0.1,1.8,0.2,2.4,0.8c0.2,0.1,11.4,9.3,31.5,9.3s31.4-9.2,31.5-9.3c0.7-0.6,1.6-0.9,2.4-0.8
	c0.9,0.1,1.7,0.5,2.3,1.2c0.6,0.7,0.8,1.5,0.8,2.4C167.5,250.1,167.1,250.9,166.4,251.5L166.4,251.5z M93.4,200.1
	c0.1-0.9,0.5-1.8,1.1-2.4c0.7-0.6,1.5-0.9,2.4-0.9c0.8,0,1.6,0.4,2.2,1c0.6,0.6,0.9,1.4,1,2.2v30.3c0,0.9-0.4,1.8-1,2.4
	c-0.6,0.6-1.5,1-2.4,1s-1.7-0.4-2.4-1c-0.6-0.6-1-1.5-1-2.4V200.1z M110.3,193.4c0.1-0.9,0.5-1.8,1.1-2.4c0.7-0.6,1.5-0.9,2.4-0.9
	c0.8,0,1.6,0.4,2.2,1c0.6,0.6,0.9,1.4,1,2.2v44.9c0,0.9-0.4,1.8-1,2.4c-0.6,0.6-1.5,1-2.4,1c-0.9,0-1.7-0.4-2.4-1
	c-0.6-0.6-1-1.5-1-2.4V193.4z M127.3,191.7c0-0.9,0.4-1.8,1-2.4c0.6-0.6,1.5-1,2.4-1c0.9,0,1.7,0.4,2.4,1c0.6,0.6,1,1.5,1,2.4v48.9
	c0,0.9-0.4,1.8-1,2.4c-0.6,0.6-1.5,1-2.4,1c-0.9,0-1.7-0.4-2.4-1c-0.6-0.6-1-1.5-1-2.4V191.7z M143.9,193.4c0-0.9,0.4-1.8,1-2.4
	c0.6-0.6,1.5-1,2.4-1c0.9,0,1.7,0.4,2.4,1c0.6,0.6,1,1.5,1,2.4v44.9c0,0.9-0.4,1.8-1,2.4c-0.6,0.6-1.5,1-2.4,1c-0.9,0-1.7-0.4-2.4-1
	c-0.6-0.6-1-1.5-1-2.4V193.4z M168.5,174.8H92.7c-1.7,0-3.3,0.3-4.8,0.9c-1.5,0.6-2.9,1.6-4.1,2.7c-1.2,1.2-2.1,2.6-2.7,4.1
	c-0.6,1.5-1,3.2-1,4.9v75.8c0,1.7,0.3,3.3,1,4.9c0.6,1.5,1.6,2.9,2.7,4.1c1.2,1.2,2.6,2.1,4.1,2.7c1.5,0.6,3.2,0.9,4.8,0.9h75.8
	c1.6,0,3.3-0.3,4.8-0.9c1.5-0.6,2.9-1.6,4.1-2.7c1.2-1.2,2.1-2.6,2.7-4.1c0.6-1.5,1-3.2,1-4.9v-75.8c0-1.7-0.3-3.3-1-4.9
	c-0.6-1.5-1.6-2.9-2.7-4.1c-1.2-1.2-2.6-2.1-4.1-2.7C171.8,175.1,170.1,174.8,168.5,174.8"/>
</svg>
