<svg xmlns="http://www.w3.org/2000/svg" xmlns:xlink="http://www.w3.org/1999/xlink" version="1.1" width="2381.4pt" height="2354.5pt" viewBox="0 0 2381.4 2354.5">
<defs>
<clipPath id="clip_0">
<path transform="matrix(1,0,0,-1,0,2354.5)" d="M0 2354.5H2381.4V0H0Z"/>
</clipPath>
</defs>
<g id="layer_1" data-name="Layer 1">
<g clip-path="url(#clip_0)">
<path transform="matrix(1,0,0,-1,159.752,1988.0567)" d="M0 0 1204.63-208.492V1830.105L0 1621.613ZM1274.155 177.322C1297.36 172.3 1305.672 168.403 1322.123 166.152 1340.132 163.555 1358.314 162.257 1376.497 162.17 1404.55 162.343 1432.603 165.287 1460.05 171.175 1488.016 176.803 1514.856 187.279 1539.273 202.085 1563.257 216.804 1583.431 236.891 1598.322 260.701 1614.773 288.494 1622.825 320.53 1621.613 352.825V996.138H1274.155ZM1390.869 1113.371C1415.459 1113.198 1439.876 1118.133 1462.561 1127.831 1506.891 1146.706 1542.13 1181.945 1560.919 1226.275 1580.14 1272.165 1580.14 1323.854 1560.832 1369.83 1541.957 1414.161 1506.718 1449.486 1462.388 1468.275 1439.702 1477.972 1415.286 1482.907 1390.61 1482.734 1366.106 1482.908 1341.863 1477.972 1319.353 1468.275 1302.555 1461.088 1297.273 1451.738 1274.155 1440.482V1155.624C1297.36 1144.281 1302.555 1135.017 1319.353 1127.831 1341.95 1118.046 1366.28 1113.198 1390.869 1113.371M1691.14 880.29V324.34H1783.783C1815.646 324.513 1847.335 327.457 1878.592 333.345 1910.021 338.886 1940.325 349.449 1968.378 364.687 1994.873 379.061 2017.73 399.32 2035.307 423.737 2053.749 450.838 2063.014 483.133 2061.715 515.948V880.29ZM1745.167 1051.551C1762.051 1034.667 1781.965 1021.247 1803.957 1011.896 1849.847 992.674 1901.536 992.674 1947.512 1011.896 1991.843 1030.771 2027.168 1066.01 2045.957 1110.341 2065.178 1156.229 2065.178 1207.92 2045.957 1253.896 2027.082 1298.226 1991.843 1333.552 1947.512 1352.34 1901.623 1371.562 1849.933 1371.562 1803.957 1352.34 1759.627 1333.465 1724.301 1298.226 1705.513 1253.896 1686.291 1208.006 1686.291 1156.316 1705.513 1110.341 1714.863 1088.435 1728.37 1068.435 1745.167 1051.551" fill="#5558af"/>
<path transform="matrix(1,0,0,-1,1040.0415,783.42727)" d="M0 0-555.95-33.854V-162.083L-347.458-153.685V-748.25L-208.492-756.389V-148.23L0-138.965Z" fill="#ffffff"/>
</g>
</g>
</svg>
