<?xml version="1.0" encoding="utf-8"?>
<!-- Generator: Adobe Illustrator 26.0.3, SVG Export Plug-In . SVG Version: 6.00 Build 0)  -->
<svg version="1.0" id="katman_1" xmlns="http://www.w3.org/2000/svg" xmlns:xlink="http://www.w3.org/1999/xlink" x="0px" y="0px"
	 viewBox="0 0 600 450" style="enable-background:new 0 0 600 450;" xml:space="preserve">
<style type="text/css">
	.st0{fill:#262627;}
</style>
<path class="st0" d="M362.4,243.8c-8.9,0-13.4-7.3-13.4-16.3c0-9,4.5-15.9,13.4-15.9c9.1,0,13.4,7.2,13.4,15.9
	C375.8,236.6,371.2,243.8,362.4,243.8z M275.5,211.6c5.2,0,7.4,3,7.4,5.6c0,6.4-6.5,9.1-20,9.5C262.8,218.9,267.3,211.6,275.5,211.6
	z M217.8,243.8c-8.4,0-11.9-6.8-11.9-16.3c0-9.4,3.6-15.9,11.9-15.9c8.5,0,12.5,6.8,12.5,15.9C230.3,237,226.2,243.8,217.8,243.8z
	 M146.8,202.3h-13.1l21.8,49.9c-4.2,9.2-6.4,11.5-9.3,11.5c-3,0-5.9-2.5-8-4.6l-5.8,7.6c3.9,4.1,9.3,6.5,14.8,6.5
	c6.9,0,12.2-4,15.2-11.1l25.1-60h-12.9L161.5,238L146.8,202.3z M494.5,211.6c6.4,0,7.7,4.4,7.7,14.6v27h11.4v-34
	c0-12.2-8.4-17.6-16.2-17.6c-6.9,0-13.2,4.3-16.7,12.2c-2-7.6-8.4-12.2-15.8-12.2c-6.5,0-13,4.1-16.5,11.8v-11.1h-11.4v50.8h11.4
	v-21.7c0-11,5.8-19.8,13.6-19.8c6.4,0,7.6,4.4,7.6,14.6v27h11.4l-0.1-21.8C480.8,220.4,486.6,211.6,494.5,211.6z M403.8,202.3H398
	v50.8h11.4v-19.5c0-12.3,5.4-20.7,13.5-20.7c2.1,0,3.8,0.1,5.8,0.9l1.8-12c-1.4-0.2-2.7-0.3-4-0.3c-8,0-13.8,5.5-17.1,12.6v-11.8
	H403.8z M362.4,201.5c-15,0-25.2,11.4-25.2,25.9c0,15,10.3,26.2,25.2,26.2c15.1,0,25.5-11.5,25.5-26.2
	C387.8,212.8,377.3,201.5,362.4,201.5z M276.1,243.8c-5.9,0-10.3-3-12.2-9.1c15-0.6,29.8-4.3,29.8-17.6c0-7.6-7.5-15.5-18.3-15.5
	c-14.6,0-24.4,11.8-24.4,25.9c0,14.7,9.7,26.2,24.2,26.2c10.1,0,16.5-4.1,21.5-9.9l-5.5-7.5C285.3,242.3,281.7,243.8,276.1,243.8z
	 M220.1,201.5c-5.8,0-11.5,3.3-13.8,8.6v-7.8h-11.4V273h11.4v-25.3c2.4,3.7,7.9,6,12.8,6c15.1,0,23.1-11.2,23.1-26.3
	C242.2,212.5,234.3,201.5,220.1,201.5z M140.4,181.9H86.7V193h21v60.1h11.9V193h20.7V181.9z M309.3,202.3h-6.8v10.2h6.8v40.6h11.4
	v-40.6h11v-10.2h-11v-8c0-5.1,2.1-6.8,6.8-6.8c1.8,0,3.4,0.5,5.5,1.2l2.6-9.5c-2.1-1.2-6.2-1.7-9-1.7c-10.9,0-17.3,6.5-17.3,17.8
	V202.3z"/>
</svg>
